{"title":"Kidnapping.Mr.Heineken.2015.WEB-DL.XviD.MP3-RARBG","uid":11738199,"size":1056087687,"categoryP":"video","categoryS":"hd___movies","magnet":"?xt=urn:btih:6b77357cb81c765b8f000d740368cb399c1da68c&amp;dn=Kidnapping.Mr.Heineken.2015.WEB-DL.XviD.MP3-RARBG&amp;tr=udp%3A%2F%2Ftracker.openbittorrent.com%3A80&amp;tr=udp%3A%2F%2Fopen.demonii.com%3A1337&amp;tr=udp%3A%2F%2Ftracker.coppersurfer.tk%3A6969&amp;tr=udp%3A%2F%2Fexodus.desync.com%3A6969","seeders":15,"leechers":3,"uploader":"makintos13","files":5,"time":1425637114,"description":"screens:\n &lt;a href=&quot;\nhttp://imgsleek.com/img-54f970fc7c38c.html&quot; rel=&quot;nofollow&quot; target=&quot;_NEW&quot;&gt;\nhttp://imgsleek.com/img-54f970fc7c38c.html&lt;/a&gt;\n &lt;a href=&quot;\nhttp://imgsleek.com/img-54f971225b448.html&quot; rel=&quot;nofollow&quot; target=&quot;_NEW&quot;&gt;\nhttp://imgsleek.com/img-54f971225b448.html&lt;/a&gt;\n\nINFO:\n\nFormat                                   : AVI\nFormat/Info                              : Audio Video Interleave\nFile size                                : 1 006 MiB\nDuration                                 : 1h 34mn\nOverall bit rate                         : 1 484 Kbps\nMovie name                               : RARBG.COM - Kidnapping.Mr.Heineken.2015.WEB-DL.XviD.MP3-RARBG\nWriting library                          : VirtualDub build 35491/release\nComment                                  : RARBG.COM - Kidnapping.Mr.Heineken.2015.WEB-DL.XviD.MP3-RARBG\n\nVideo\nID                                       : 0\nFormat                                   : MPEG-4 Visual\nFormat profile                           : Simple@L5\nFormat settings, BVOP                    : No\nFormat settings, QPel                    : No\nFormat settings, GMC                     : No warppoints\nFormat settings, Matrix                  : Default (H.263)\nCodec ID                                 : XVID\nCodec ID/Hint                            : XviD\nDuration                                 : 1h 34mn\nBit rate                                 : 1 280 Kbps\nWidth                                    : 720 pixels\nHeight                                   : 304 pixels\nDisplay aspect ratio                     : 2.40:1\nFrame rate                               : 24.000 fps\nColor space                              : YUV\nChroma subsampling                       : 4:2:0\nBit depth                                : 8 bits\nScan type                                : Progressive\nCompression mode                         : Lossy\nBits/(Pixel*Frame)                       : 0.244\nStream size                              : 867 MiB (86%)\nWriting library                          : Lavc56.20.100\n\nAudio\nID                                       : 1\nFormat                                   : MPEG Audio\nFormat version                           : Version 1\nFormat profile                           : Layer 3\nMode                                     : Joint stereo\nMode extension                           : MS Stereo\nCodec ID                                 : 55\nCodec ID/Hint                            : MP3\nDuration                                 : 1h 34mn\nBit rate mode                            : Constant\nBit rate                                 : 192 Kbps\nChannel(s)                               : 2 channels\nSampling rate                            : 48.0 KHz\nCompression mode                         : Lossy\nStream size                              : 130 MiB (13%)\nAlignment                                : Aligned on interleaves\nInterleave, duration                     : 24 ms (0.58 video frame)\nInterleave, preload duration             : 504 ms\nWriting library                          : LAME3.99.5","torrent":{"xt":"urn:btih:6b77357cb81c765b8f000d740368cb399c1da68c","amp;dn":"Kidnapping.Mr.Heineken.2015.WEB-DL.XviD.MP3-RARBG","amp;tr":["udp%3A%2F%2Ftracker.openbittorrent.com%3A80","udp%3A%2F%2Fopen.demonii.com%3A1337","udp%3A%2F%2Ftracker.coppersurfer.tk%3A6969","udp%3A%2F%2Fexodus.desync.com%3A6969"],"infoHash":"6b77357cb81c765b8f000d740368cb399c1da68c","infoHashBuffer":{"type":"Buffer","data":[107,119,53,124,184,28,118,91,143,0,13,116,3,104,203,57,156,29,166,140]},"announce":[],"urlList":[]}}